<svg version="1.1" class="clearos-svg clearfoundation app-vendor-clearfoundation app-free app-category-network app-sub-category-infrastructure" viewBox="0 0 400 400" preserveAspectRatio="xMinYMin" xmlns="http://www.w3.org/2000/svg" xmlns:xlink= "http://www.w3.org/1999/xlink">
<path fill="#AA0707" d="M91.666,184.647"/>
<path fill="#AA0707" d="M123.245,247.805"/>
<path fill="#AA0707" d="M91.666,184.647"/>
<path fill="#AA0707" d="M123.245,247.805"/>
<g>
	<path fill="#686868" d="M398.223,228.434l-70.387-70.955c6.488-12.849,10.229-27.332,10.229-42.737
		c0-52.393-42.493-94.886-94.87-94.886c-52.39,0-94.875,42.493-94.875,94.869c0,52.367,42.485,94.877,94.875,94.877
		c16.466,0,31.902-4.185,45.384-11.556l69.613,70.134L398.223,228.434z M167.506,114.74c0-41.783,33.875-75.684,75.676-75.684
		c41.768,0,75.675,33.899,75.675,75.684c0,41.799-33.907,75.682-75.675,75.682C201.381,190.406,167.506,156.539,167.506,114.74z"/>
	<g>
		<path fill="#686868" d="M162.107,363.917c-79.565,0-144.071-64.498-144.071-144.087c0-68.784,48.278-126.25,112.777-140.536
			c1.634-6.116,3.717-11.996,6.251-17.655C60.436,73.714,1.777,139.839,1.777,219.83c0,88.555,71.783,160.314,160.33,160.314
			c77.979,0,142.854-55.677,157.252-129.455l-14.238-14.098C296.755,308.259,235.98,363.917,162.107,363.917z"/>
		<path fill="#686868" d="M152.652,89.735c-0.104,0-0.197,0.049-0.292,0.049c-0.032,0.156-0.087,0.308-0.119,0.434
			c0.15-0.031,0.276-0.095,0.395-0.11v-0.371L152.652,89.735L152.652,89.735z"/>
		<path fill="#686868" d="M127.08,102.049c0.126-2.068,0.236-4.151,0.481-6.203c-33.575,12.51-60.371,42.344-72.028,80.772h29.306
			C92.132,143.643,107.49,116.901,127.08,102.049z"/>
		<path fill="#686868" d="M49.085,219.83c0,8.604,0.758,16.984,2.115,25.1h30.489c-0.986-8.115-1.539-16.496-1.539-25.1
			c0-8.903,0.584-17.577,1.647-25.968H51.334C49.874,202.253,49.085,210.927,49.085,219.83z"/>
		<path fill="#686868" d="M152.652,349.963v-0.41c-31.771-5.809-57.932-40.6-68.003-87.387H55.256
			C69.521,310.186,107.23,345.575,152.652,349.963z"/>
		<path fill="#686868" d="M152.652,193.848H97.058c-1.271,8.318-2.068,16.984-2.068,25.951c0,8.682,0.711,17.079,1.942,25.131
			h55.688L152.652,193.848L152.652,193.848z"/>
		<path fill="#686868" d="M100.768,176.634h47.449c-10.148-14.325-17.127-30.986-19.961-49.076
			C116.148,138.836,106.465,155.986,100.768,176.634z"/>
		<path fill="#686868" d="M228.975,224.691c-22.227-2.651-42.558-11.556-59.107-24.964v45.202h57.371
			C228.247,238.425,228.752,231.621,228.975,224.691z"/>
		<path fill="#686868" d="M223.732,262.166h-53.866v63.914C194.088,321.581,214.355,296.609,223.732,262.166z"/>
		<path fill="#686868" d="M152.652,262.166H100.49c9.084,33.605,28.657,58.23,52.162,63.488V262.166z"/>
		<path fill="#686868" d="M275.034,220.919c-9.913,2.89-20.378,4.53-31.207,4.595c-0.188,6.598-0.632,13.103-1.39,19.416h30.545
			C274.275,237.162,274.973,229.145,275.034,220.919z"/>
		<path fill="#686868" d="M268.941,262.166h-29.408c-10.213,47.624-37.143,82.841-69.667,87.702v0.204
			C215.998,346.396,254.516,310.784,268.941,262.166z"/>
	</g>
</g>
</svg>
